<?xml version="1.0" encoding="UTF-8"?>
<svg xmlns="http://www.w3.org/2000/svg" version="1.1" width="200" height="200" viewBox="0 0 200 200"><rect x="0" y="0" width="200" height="200" fill="#ffffff"/><g transform="scale(6.897)"><g transform="translate(0,0)"><path fill-rule="evenodd" d="M10 0L10 1L9 1L9 2L8 2L8 3L9 3L9 5L10 5L10 7L11 7L11 8L12 8L12 9L11 9L11 10L10 10L10 9L9 9L9 6L8 6L8 8L4 8L4 9L3 9L3 8L0 8L0 9L2 9L2 10L1 10L1 12L3 12L3 11L5 11L5 12L4 12L4 14L5 14L5 15L2 15L2 14L1 14L1 15L2 15L2 16L3 16L3 17L2 17L2 18L3 18L3 19L1 19L1 18L0 18L0 19L1 19L1 20L0 20L0 21L1 21L1 20L3 20L3 21L4 21L4 20L3 20L3 19L5 19L5 20L6 20L6 21L7 21L7 20L9 20L9 21L8 21L8 25L9 25L9 26L8 26L8 29L10 29L10 28L11 28L11 29L12 29L12 28L14 28L14 29L18 29L18 28L20 28L20 29L21 29L21 27L22 27L22 26L21 26L21 25L24 25L24 26L23 26L23 28L22 28L22 29L23 29L23 28L24 28L24 29L26 29L26 28L25 28L25 27L27 27L27 29L29 29L29 28L28 28L28 27L29 27L29 24L27 24L27 26L25 26L25 25L26 25L26 24L25 24L25 23L26 23L26 22L27 22L27 23L29 23L29 21L26 21L26 22L25 22L25 20L26 20L26 18L27 18L27 20L28 20L28 19L29 19L29 16L28 16L28 15L29 15L29 12L28 12L28 11L29 11L29 9L28 9L28 10L26 10L26 9L27 9L27 8L26 8L26 9L25 9L25 10L26 10L26 11L24 11L24 10L23 10L23 8L21 8L21 6L20 6L20 5L21 5L21 2L20 2L20 1L21 1L21 0L19 0L19 2L18 2L18 0L15 0L15 2L14 2L14 3L12 3L12 2L11 2L11 3L12 3L12 5L10 5L10 3L9 3L9 2L10 2L10 1L11 1L11 0ZM15 2L15 3L14 3L14 4L15 4L15 5L17 5L17 4L18 4L18 6L17 6L17 7L16 7L16 6L15 6L15 7L14 7L14 5L13 5L13 7L12 7L12 6L11 6L11 7L12 7L12 8L13 8L13 9L14 9L14 10L13 10L13 11L14 11L14 10L15 10L15 12L17 12L17 11L16 11L16 10L18 10L18 11L19 11L19 12L18 12L18 13L19 13L19 15L18 15L18 18L17 18L17 16L15 16L15 15L16 15L16 13L15 13L15 14L14 14L14 12L12 12L12 11L11 11L11 12L12 12L12 14L10 14L10 15L12 15L12 16L10 16L10 17L9 17L9 20L10 20L10 22L11 22L11 23L12 23L12 24L10 24L10 27L11 27L11 28L12 28L12 27L11 27L11 25L12 25L12 24L13 24L13 25L14 25L14 26L13 26L13 27L14 27L14 26L15 26L15 28L16 28L16 27L19 27L19 26L18 26L18 25L17 25L17 26L16 26L16 23L17 23L17 22L14 22L14 20L12 20L12 19L11 19L11 18L10 18L10 17L12 17L12 16L13 16L13 17L14 17L14 18L13 18L13 19L14 19L14 18L15 18L15 19L16 19L16 18L17 18L17 19L20 19L20 16L19 16L19 15L21 15L21 16L23 16L23 15L24 15L24 17L23 17L23 19L24 19L24 20L25 20L25 19L24 19L24 18L26 18L26 17L27 17L27 18L28 18L28 17L27 17L27 14L28 14L28 13L27 13L27 11L26 11L26 13L27 13L27 14L25 14L25 12L24 12L24 11L23 11L23 10L20 10L20 9L21 9L21 8L19 8L19 7L20 7L20 6L19 6L19 4L20 4L20 3L18 3L18 2L17 2L17 4L16 4L16 2ZM18 6L18 7L17 7L17 9L18 9L18 10L19 10L19 8L18 8L18 7L19 7L19 6ZM15 7L15 8L16 8L16 7ZM6 9L6 10L5 10L5 11L6 11L6 12L5 12L5 13L6 13L6 14L7 14L7 15L5 15L5 17L6 17L6 18L7 18L7 19L6 19L6 20L7 20L7 19L8 19L8 15L9 15L9 13L10 13L10 12L8 12L8 14L7 14L7 13L6 13L6 12L7 12L7 11L6 11L6 10L7 10L7 9ZM8 9L8 10L9 10L9 11L10 11L10 10L9 10L9 9ZM2 10L2 11L3 11L3 10ZM21 11L21 13L20 13L20 14L21 14L21 15L23 15L23 11ZM13 14L13 15L14 15L14 14ZM25 15L25 16L26 16L26 15ZM6 16L6 17L7 17L7 16ZM3 17L3 18L4 18L4 17ZM21 18L21 20L22 20L22 18ZM11 20L11 22L12 22L12 20ZM18 20L18 24L19 24L19 25L20 25L20 23L19 23L19 22L20 22L20 20ZM21 21L21 24L24 24L24 21ZM13 22L13 23L14 23L14 22ZM22 22L22 23L23 23L23 22ZM20 26L20 27L21 27L21 26ZM27 26L27 27L28 27L28 26ZM0 0L0 7L7 7L7 0ZM1 1L1 6L6 6L6 1ZM2 2L2 5L5 5L5 2ZM22 0L22 7L29 7L29 0ZM23 1L23 6L28 6L28 1ZM24 2L24 5L27 5L27 2ZM0 22L0 29L7 29L7 22ZM1 23L1 28L6 28L6 23ZM2 24L2 27L5 27L5 24Z" fill="#000000"/></g></g></svg>
